<?xml version="1.0" encoding="UTF-8"?>
<svg version="1.1" xmlns="http://www.w3.org/2000/svg" width="1920" height="1920">
<path d="M0 0 C633.6 0 1267.2 0 1920 0 C1920 633.6 1920 1267.2 1920 1920 C1286.4 1920 652.8 1920 0 1920 C0 1286.4 0 652.8 0 0 Z " fill="#FEFEFE" transform="translate(0,0)"/>
<path d="M0 0 C0.9178125 0.2165625 1.835625 0.433125 2.78125 0.65625 C17.99947801 4.70160175 34.95567474 14.90132203 44 28 C44 28.99 44 29.98 44 31 C44.66 31 45.32 31 46 31 C46 31.66 46 32.32 46 33 C46.66 33 47.32 33 48 33 C49.49257525 35.86822686 50.96656313 38.74562433 52.4375 41.625 C52.85837891 42.43324219 53.27925781 43.24148438 53.71289062 44.07421875 C55.90719642 48.39261256 57.56369173 52.09748167 58 57 C58.66 57 59.32 57 60 57 C60.20625 56.195625 60.4125 55.39125 60.625 54.5625 C63.64739544 46.73174817 69.3414386 39.16899864 75 33 C75.66 33 76.32 33 77 33 C77 32.34 77 31.68 77 31 C77.66 31 78.32 31 79 31 C79 30.34 79 29.68 79 29 C79.66 29 80.32 29 81 29 C81 28.34 81 27.68 81 27 C81.66 27 82.32 27 83 27 C83 26.34 83 25.68 83 25 C84.6796875 23.4921875 84.6796875 23.4921875 86.875 21.875 C87.95394531 21.06675781 87.95394531 21.06675781 89.0546875 20.2421875 C91 19 91 19 93 19 C93 18.34 93 17.68 93 17 C103.54981224 9.65870387 114.69189692 4.55436196 127 1 C127.69109863 0.79117188 128.38219727 0.58234375 129.09423828 0.3671875 C155.62608303 -7.44102013 184.94460566 -3.919077 209.1875 9.125 C213.93751888 12.04156379 218.07017751 15.4551695 222.1875 19.1875 C222.75299561 19.69877441 223.31849121 20.21004883 223.90112305 20.73681641 C228.68791375 25.26388172 228.68791375 25.26388172 229 29 C229.66 29 230.32 29 231 29 C231 29.66 231 30.32 231 31 C231.66 31 232.32 31 233 31 C235 34 235 34 235 37 C235.66 37 236.32 37 237 37 C246.68057417 55.19947944 251.19207073 74.05189753 251.12025452 94.63052368 C251.12153615 96.00316299 251.12153615 96.00316299 251.12284368 97.40353239 C251.1244782 100.44042884 251.11901063 103.47726887 251.11352539 106.51416016 C251.11324305 108.70279947 251.11340216 110.89143887 251.1139679 113.08007812 C251.11425406 119.00079308 251.10838661 124.92148766 251.10139394 130.8421979 C251.09513024 137.03748756 251.09455421 143.23277773 251.09336853 149.42807007 C251.0902641 161.15042671 251.0820627 172.87277399 251.07201904 184.59512651 C251.06074964 197.94455912 251.0553405 211.29399178 251.05032361 224.64342809 C251.03987934 252.0956251 251.02154491 279.5478093 251 307 C232.52 307 214.04 307 195 307 C194.97812622 297.43136963 194.97812622 297.43136963 194.95581055 287.66943359 C194.90545309 266.58294571 194.83900515 245.49653115 194.76428509 224.4101162 C194.71937868 211.6266093 194.67995211 198.84312995 194.65356445 186.05957031 C194.63054265 174.913414 194.5970979 163.76734521 194.55129844 152.62125838 C194.52742269 146.7231433 194.50865691 140.82511461 194.50238609 134.92695236 C194.49630969 129.36687229 194.47621784 123.80701308 194.44572449 118.247015 C194.4369851 116.21463877 194.4332131 114.18223364 194.43499184 112.1498394 C194.44650741 92.90779748 192.93699442 74.6916162 179.18359375 59.9609375 C177.17426564 58.15649615 175.47253566 57.04283817 173 56 C173 55.34 173 54.68 173 54 C152.78369504 46.80436603 132.45933826 45.26508889 112.5 54.25 C111.345 54.8275 110.19 55.405 109 56 C108.34 56 107.68 56 107 56 C106.67 56.99 106.34 57.98 106 59 C104.31713525 59.71646717 102.63147034 60.42736219 100.9296875 61.09765625 C97.62060475 62.64502086 95.13433597 65.00793168 92.5 67.5 C91.93176514 68.0355249 91.36353027 68.5710498 90.77807617 69.12280273 C85.83619406 73.92164713 82.2927708 78.94365371 79 85 C78.16748397 86.42756028 77.3340786 87.85460212 76.5 89.28125 C75.60124872 90.87335633 74.70542604 92.46711932 73.8125 94.0625 C73.39589111 94.7747876 72.97928223 95.4870752 72.55004883 96.22094727 C65.10054544 109.99259885 64.40463722 125.73319001 64.45410156 141.02587891 C64.44533947 142.8511797 64.43484466 144.67647284 64.42277527 146.50175476 C64.39521707 151.39522352 64.39150382 156.28843795 64.39249516 161.18197298 C64.38933976 166.31891176 64.36366762 171.4557403 64.34051514 176.59262085 C64.30015101 186.29245348 64.27966078 195.99221923 64.26654124 205.69212282 C64.2506044 216.74680305 64.21216106 227.80137051 64.17194796 238.85598493 C64.08981735 261.570641 64.03852777 284.28522523 64 307 C45.52 307 27.04 307 8 307 C7.9906543 300.63138672 7.98130859 294.26277344 7.97167969 287.70117188 C7.93788402 266.63863607 7.88252029 245.57619752 7.81609726 224.51374054 C7.7763573 211.74597474 7.74393919 198.97827012 7.72900391 186.21044922 C7.71596126 175.07670763 7.68892994 163.94310096 7.64538693 152.80943537 C7.62283097 146.91905473 7.6070858 141.02884013 7.60811615 135.13841248 C7.60886623 129.58319808 7.5907764 124.02834991 7.55883217 118.47323036 C7.55038086 116.44492071 7.54855042 114.41656975 7.55419731 112.38825035 C7.59608719 95.01458283 6.42448668 74.98717343 -6.23046875 61.74609375 C-6.81441406 61.16988281 -7.39835938 60.59367188 -8 60 C-8.886875 59.0925 -9.77375 58.185 -10.6875 57.25 C-23.0302787 47.4023922 -43.30838366 49.25883101 -58 50 C-62.47538766 50.52710526 -66.70340517 51.66035088 -71 53 C-72.66284787 53.35188897 -74.32866242 53.69093757 -76 54 C-76.33 54.99 -76.66 55.98 -77 57 C-78.71484375 57.88671875 -78.71484375 57.88671875 -80.9375 58.6875 C-95.14239517 64.6400275 -105.64111424 77.86915174 -111.5 91.75 C-111.80260742 92.46027344 -112.10521484 93.17054688 -112.41699219 93.90234375 C-113.01427302 95.30816231 -113.60908988 96.71503085 -114.20117188 98.12304688 C-114.8552978 99.66000289 -115.54052778 101.18368742 -116.234375 102.703125 C-122.09118784 115.9485325 -122.4471535 130.21212625 -122.43237305 144.43164062 C-122.44141461 146.21723599 -122.45174758 148.00282521 -122.46325684 149.78840637 C-122.4905722 154.58277746 -122.50007629 159.37703 -122.50611091 164.17146873 C-122.51556165 169.20163953 -122.54176987 174.23172404 -122.56611633 179.26184082 C-122.60960212 188.76339468 -122.63825872 198.26493162 -122.66143972 207.76655436 C-122.68858805 218.59385545 -122.7324932 229.42106896 -122.77772844 240.24830723 C-122.87031778 262.49883652 -122.93990441 284.74935759 -123 307 C-141.48 307 -159.96 307 -179 307 C-179 206.68 -179 106.36 -179 3 C-161.51 3 -144.02 3 -126 3 C-125.67 21.48 -125.34 39.96 -125 59 C-123.68 56.36 -122.36 53.72 -121 51 C-120.34 51 -119.68 51 -119 51 C-118.690625 50.05125 -118.38125 49.1025 -118.0625 48.125 C-117 45 -117 45 -116 43 C-115.34 43 -114.68 43 -114 43 C-113.67 41.68 -113.34 40.36 -113 39 C-112.34 39 -111.68 39 -111 39 C-111 38.34 -111 37.68 -111 37 C-110.34 37 -109.68 37 -109 37 C-108.67 35.68 -108.34 34.36 -108 33 C-107.34 33 -106.68 33 -106 33 C-105.62875 32.071875 -105.62875 32.071875 -105.25 31.125 C-103.79371361 28.64931313 -102.62187494 28.04874998 -100 27 C-100 26.34 -100 25.68 -100 25 C-99.34 25 -98.68 25 -98 25 C-98 24.34 -98 23.68 -98 23 C-96.26451831 21.55473264 -94.46024037 20.1912778 -92.625 18.875 C-91.62726563 18.15054688 -90.62953125 17.42609375 -89.6015625 16.6796875 C-87 15 -87 15 -85 15 C-85 14.34 -85 13.68 -85 13 C-84.24074219 12.59007812 -83.48148438 12.18015625 -82.69921875 11.7578125 C-81.70535156 11.21898437 -80.71148438 10.68015625 -79.6875 10.125 C-78.20830078 9.32449219 -78.20830078 9.32449219 -76.69921875 8.5078125 C-73.90413542 6.99277874 -73.90413542 6.99277874 -71 5 C-47.63042422 -3.01923155 -24.23863417 -6.00406534 0 0 Z " fill="#020202" transform="translate(929,810)"/>
<path d="M0 0 C14.9579736 11.90929369 25.23755805 27.17892671 34 44 C34.52787109 44.95519531 34.52787109 44.95519531 35.06640625 45.9296875 C37.32228442 50.14177 38.59939589 54.02595329 39.51220703 58.70898438 C40.00488761 61.02295561 40.66166493 63.20710094 41.40234375 65.453125 C49.90260077 91.64897202 51.41106621 121.71147031 48 149 C-22.29 149 -92.58 149 -165 149 C-163.54657852 161.64022422 -163.54657852 161.64022422 -160.7109375 173.5625 C-160.04417219 175.84855251 -159.5675346 178.09958135 -159.125 180.4375 C-154.94170149 199.51742248 -141.27135267 218.11602181 -125.15234375 228.90625 C-105.41072505 240.92953261 -80.17691651 243.9417646 -57.6875 238.5 C-46.753763 234.87675929 -34.79110813 229.7620365 -27 221 C-26.67 220.34 -26.34 219.68 -26 219 C-25.34 219 -24.68 219 -24 219 C-24 218.34 -24 217.68 -24 217 C-23.34 217 -22.68 217 -22 217 C-21.67 215.68 -21.34 214.36 -21 213 C-20.34 213 -19.68 213 -19 213 C-18.01 210.03 -18.01 210.03 -17 207 C-16.34 207 -15.68 207 -15 207 C-14.71125 206.071875 -14.4225 205.14375 -14.125 204.1875 C-13 201 -13 201 -11 198 C-8.82333374 197.63923645 -8.82333374 197.63923645 -6.09130859 197.65942383 C-4.55994766 197.65976372 -4.55994766 197.65976372 -2.99765015 197.66011047 C-1.89240997 197.67559433 -0.7871698 197.69107819 0.3515625 197.70703125 C1.4807309 197.71127609 2.60989929 197.71552094 3.77328491 197.71989441 C7.39076273 197.73672868 11.00768969 197.77439025 14.625 197.8125 C17.07290864 197.82754066 19.52082598 197.84123014 21.96875 197.85351562 C27.9793556 197.88664773 33.98963846 197.93689421 40 198 C39.87701384 199.42064797 39.74391938 200.84042275 39.60668945 202.25976562 C39.53368118 203.05048462 39.46067291 203.84120361 39.38545227 204.65588379 C38.77347782 208.37758773 37.08717938 211.28746441 35.1875 214.5 C34.45583655 215.79546802 33.72665418 217.09234055 33 218.390625 C32.65195312 219.00744141 32.30390625 219.62425781 31.9453125 220.25976562 C30.3658747 223.16736703 29.10707529 226.19389829 27.88671875 229.265625 C26.85518136 231.28325761 25.62403099 232.41761083 24 234 C22.47523005 235.9391096 20.97771061 237.89979348 19.5 239.875 C18.33984375 241.41800781 18.33984375 241.41800781 17.15625 242.9921875 C14.98442125 245.91552649 14.98442125 245.91552649 13.34375 248.8828125 C12.9003125 249.58148437 12.456875 250.28015625 12 251 C11.34 251 10.68 251 10 251 C9.77183594 251.58265625 9.54367187 252.1653125 9.30859375 252.765625 C7.64475889 255.60656095 5.76304455 256.87472946 3.0625 258.75 C2.0828125 259.43707031 1.103125 260.12414063 0.09375 260.83203125 C-0.9271875 261.54746094 -1.948125 262.26289062 -3 263 C-5.86723611 265.13934241 -8.73145976 267.28243879 -11.58984375 269.43359375 C-14 271 -14 271 -16.25390625 271.53515625 C-16.83011719 271.68855469 -17.40632812 271.84195312 -18 272 C-18.33 272.99 -18.66 273.98 -19 275 C-20.64453125 275.7734375 -20.64453125 275.7734375 -22.8125 276.375 C-26.69230722 277.53462442 -30.30099632 278.97678837 -34 280.625 C-39.12499889 282.81298029 -43.45034472 283.72251724 -49 284 C-49 284.66 -49 285.32 -49 286 C-69.83357501 291.34357344 -95.16473462 291.32610095 -116 286 C-116.79792969 285.80277344 -117.59585938 285.60554688 -118.41796875 285.40234375 C-118.94003906 285.26957031 -119.46210937 285.13679688 -120 285 C-120 284.34 -120 283.68 -120 283 C-122.97 282.67 -125.94 282.34 -129 282 C-129 281.34 -129 280.68 -129 280 C-130.175625 279.835 -131.35125 279.67 -132.5625 279.5 C-142.59431269 277.29013952 -151.84779243 271.02554473 -160 265 C-160.7940625 264.7009375 -161.588125 264.401875 -162.40625 264.09375 C-169.19651615 261.23038476 -174.43295015 254.74662797 -179.109375 249.20703125 C-182.18902044 245.6119906 -185.44255083 242.17508714 -188.66796875 238.7109375 C-195 231.35008375 -195 231.35008375 -195 228 C-195.66 228 -196.32 228 -197 228 C-197.67154933 226.71086513 -198.33708859 225.41859796 -199 224.125 C-199.37125 223.40570312 -199.7425 222.68640625 -200.125 221.9453125 C-201 220 -201 220 -201 218 C-201.66 218 -202.32 218 -203 218 C-206.82687185 210.93500581 -209.53345381 203.52461831 -212.2644043 195.98730469 C-212.74484885 194.68932304 -213.24304195 193.39773627 -213.76098633 192.11425781 C-227.62711031 157.35792782 -226.90813931 110.26466954 -216 75 C-215.80599609 74.32453125 -215.61199219 73.6490625 -215.41210938 72.953125 C-211.54762896 59.5071868 -205.51232206 47.34663942 -199 35 C-198.34 35 -197.68 35 -197 35 C-196.34 33.02 -195.68 31.04 -195 29 C-194.34 29 -193.68 29 -193 29 C-192.67 27.68 -192.34 26.36 -192 25 C-191.34 25 -190.68 25 -190 25 C-189.67 23.68 -189.34 22.36 -189 21 C-188.34 21 -187.68 21 -187 21 C-186.67 19.68 -186.34 18.36 -186 17 C-185.34 17 -184.68 17 -184 17 C-184 16.34 -184 15.68 -184 15 C-183.34 15 -182.68 15 -182 15 C-182 14.34 -182 13.68 -182 13 C-181.34 13 -180.68 13 -180 13 C-180 12.34 -180 11.68 -180 11 C-179.34 11 -178.68 11 -178 11 C-178 10.34 -178 9.68 -178 9 C-177.34 9 -176.68 9 -176 9 C-176 8.34 -176 7.68 -176 7 C-175.34 7 -174.68 7 -174 7 C-174 6.34 -174 5.68 -174 5 C-172.35 4.34 -170.7 3.68 -169 3 C-169 2.34 -169 1.68 -169 1 C-167.35 0.34 -165.7 -0.32 -164 -1 C-164 -1.66 -164 -2.32 -164 -3 C-163.01 -3 -162.02 -3 -161 -3 C-161 -3.66 -161 -4.32 -161 -5 C-160.01 -5 -159.02 -5 -158 -5 C-158 -5.66 -158 -6.32 -158 -7 C-157.24074219 -7.40992188 -156.48148438 -7.81984375 -155.69921875 -8.2421875 C-154.70535156 -8.78101563 -153.71148438 -9.31984375 -152.6875 -9.875 C-151.20830078 -10.67550781 -151.20830078 -10.67550781 -149.69921875 -11.4921875 C-146.90413542 -13.00722126 -146.90413542 -13.00722126 -144 -15 C-141.95069691 -15.71725608 -139.89737809 -16.42454277 -137.828125 -17.08203125 C-135.76408606 -17.75198864 -133.71343006 -18.463588 -131.671875 -19.19921875 C-122.21903175 -22.54793875 -112.90911761 -24.52162358 -103 -26 C-101.94296875 -26.185625 -100.8859375 -26.37125 -99.796875 -26.5625 C-63.96715349 -30.69102758 -28.51496656 -22.21741223 0 0 Z " fill="#010101" transform="translate(669,834)"/>
<path d="M0 0 C1.10988281 0.2165625 2.21976563 0.433125 3.36328125 0.65625 C19.69168616 4.28959043 37.65902324 12.28542668 49 25 C49 25.66 49 26.32 49 27 C49.66 27 50.32 27 51 27 C51.33 28.32 51.66 29.64 52 31 C52.66 31 53.32 31 54 31 C54.33 32.32 54.66 33.64 55 35 C55.66 35 56.32 35 57 35 C69.14039937 57.92801138 74.48435325 79.56889868 74.40063477 105.50512695 C74.40640025 107.15694671 74.41349224 108.80876228 74.42178345 110.46057129 C74.43672134 113.97539993 74.44268614 117.49007843 74.44125557 121.00493813 C74.43919267 126.58680501 74.45898265 132.16847541 74.48143005 137.75028992 C74.52214174 148.60066331 74.54093587 159.45102028 74.55760193 170.30145264 C74.58004867 184.10039386 74.61396849 197.89928801 74.66480106 211.69815415 C74.68127951 216.32750936 74.69340302 220.95678987 74.69503975 225.58617592 C74.70555273 253.44927051 76.71835534 279.16930973 81 307 C62.85 307 44.7 307 26 307 C22.54898649 279.39189189 22.54898649 279.39189189 22.8125 269.5 C22.82603516 268.46359375 22.83957031 267.4271875 22.85351562 266.359375 C22.88759622 263.90557249 22.93591005 261.45316605 23 259 C20.1673866 260.4163067 19.98292167 262.14497293 18.875 265.0625 C18.52179688 265.98160156 18.16859375 266.90070313 17.8046875 267.84765625 C17.53914063 268.55792969 17.27359375 269.26820313 17 270 C16.34 270 15.68 270 15 270 C14.67 271.32 14.34 272.64 14 274 C13.34 274 12.68 274 12 274 C11.89510254 274.59312988 11.79020508 275.18625977 11.68212891 275.79736328 C10.89697996 278.33265812 9.96692777 279.39394939 8.0859375 281.2421875 C7.48910156 281.83386719 6.89226562 282.42554688 6.27734375 283.03515625 C5.64957031 283.64230469 5.02179688 284.24945312 4.375 284.875 C3.77042969 285.47441406 3.16585938 286.07382813 2.54296875 286.69140625 C-9.19941551 298.23349398 -9.19941551 298.23349398 -14.3125 299.75 C-17.98758544 300.69247367 -17.98758544 300.69247367 -20 303 C-22.94707862 304.22817898 -26.01599671 305.11176891 -29.0625 306.0625 C-29.88427734 306.33126953 -30.70605469 306.60003906 -31.55273438 306.87695312 C-37.05938012 308.61429769 -42.24409933 309.53048544 -48 310 C-48 310.66 -48 311.32 -48 312 C-70.78712895 318.90412316 -100.54882495 311.73063959 -120.79736328 301.04833984 C-138.88111337 290.92434482 -152.21431494 275.97577953 -158 255.9375 C-164.70052566 231.892327 -163.20593123 204.49863011 -151.0703125 182.4921875 C-148.44392388 177.95966642 -145.52887909 173.87647746 -142 170 C-141.34644531 169.26652344 -140.69289063 168.53304687 -140.01953125 167.77734375 C-128.8750318 155.94265672 -114.2042895 147.48563854 -99 142 C-97.948125 141.61070312 -96.89625 141.22140625 -95.8125 140.8203125 C-75.51320094 133.65323542 -54.05424706 130.42494069 -32.91430664 126.73236084 C-30.19288617 126.2554688 -27.47253985 125.77260403 -24.75217819 125.28971481 C-9.86498335 122.64879892 5.02961038 120.12656418 20 118 C19.60955372 85.65551788 19.60955372 85.65551788 4.90234375 57.578125 C2.98517478 55.79376622 2.98517478 55.79376622 0 55 C-0.5775 54.38125 -1.155 53.7625 -1.75 53.125 C-10.19442598 45.14970879 -23.93235919 45.63939244 -34.75 45.6875 C-35.98758057 45.69023926 -37.22516113 45.69297852 -38.50024414 45.69580078 C-47.96754972 45.80429786 -56.74858167 46.46766163 -65.61328125 50.05859375 C-68 51 -68 51 -71.75 51.6875 C-79.67937282 53.59114905 -85.08231435 59.89014813 -90 66 C-90.66 66 -91.32 66 -92 66 C-92.37125 67.175625 -92.37125 67.175625 -92.75 68.375 C-94.02363887 72.06855272 -95.4802034 75.64454398 -97 79.2421875 C-98.26904296 82.74197003 -99.09709789 86.38839156 -100 90 C-117.49 90 -134.98 90 -153 90 C-152.34805552 82.82861077 -151.71950561 76.75334296 -149.75 70 C-149.52747559 69.22454834 -149.30495117 68.44909668 -149.07568359 67.65014648 C-143.54961363 48.97483395 -132.49441857 32.86806529 -117 21 C-116.34 21 -115.68 21 -115 21 C-115 20.34 -115 19.68 -115 19 C-112.77783686 17.45480732 -110.57902749 16.05512335 -108.25 14.6875 C-107.56695801 14.28378174 -106.88391602 13.88006348 -106.18017578 13.46411133 C-100.32090956 10.06726697 -94.38325328 7.28337119 -88 5 C-87.01 4.64292969 -86.02 4.28585937 -85 3.91796875 C-75.86406806 0.86885147 -66.51649403 -0.69085267 -57 -2 C-55.96999878 -2.14574463 -55.96999878 -2.14574463 -54.91918945 -2.29443359 C-36.75121964 -4.60985727 -17.90962968 -3.64705186 0 0 Z " fill="#010101" transform="translate(1372,810)"/>
<path d="M0 0 C18.80231098 -0.6831697 35.46694667 0.37598468 51.42724609 11.10791016 C53.14132395 12.72577685 54.81224377 14.39113322 56.42724609 16.10791016 C57.16845703 16.80271484 57.90966797 17.49751953 58.67333984 18.21337891 C64.07708755 23.34742084 67.98751128 28.50905048 71.42724609 35.10791016 C71.81299805 35.8167334 72.19875 36.52555664 72.59619141 37.25585938 C75.86666016 43.45893853 77.94487542 49.5774486 79.67724609 56.35791016 C79.93248047 57.31181641 80.18771484 58.26572266 80.45068359 59.24853516 C82.55260874 67.21372517 83.42724609 73.7156953 83.42724609 82.10791016 C31.28724609 82.10791016 -20.85275391 82.10791016 -74.57275391 82.10791016 C-73.57275391 73.10791016 -73.57275391 73.10791016 -72.57275391 72.10791016 C-72.44900391 71.07666016 -72.32525391 70.04541016 -72.19775391 68.98291016 C-71.65956804 65.64615778 -70.8540809 63.08633841 -69.45166016 60.03759766 C-68.45888383 57.85790208 -67.57683409 55.64836237 -66.69775391 53.42041016 C-66.35357422 52.56833984 -66.00939453 51.71626953 -65.65478516 50.83837891 C-64.9169298 48.97642623 -64.20703678 47.10320773 -63.52197266 45.22119141 C-59.23835301 33.96012946 -51.90411147 23.81366923 -42.57275391 16.10791016 C-41.58275391 15.77791016 -40.59275391 15.44791016 -39.57275391 15.10791016 C-38.46867188 13.96902344 -38.46867188 13.96902344 -37.34228516 12.80712891 C-27.2006883 2.92300559 -13.62103174 0.57131297 0 0 Z " fill="#FCFCFC" transform="translate(578.57275390625,854.89208984375)"/>
<path d="M0 0 C1.20897949 0.00507568 1.20897949 0.00507568 2.44238281 0.01025391 C3.36035645 0.01677979 3.36035645 0.01677979 4.296875 0.0234375 C4.37363017 6.7636781 4.42576739 13.5038039 4.46166992 20.24438477 C4.47665448 22.53218803 4.49704912 24.81996307 4.52319336 27.10766602 C4.76702844 49.00979398 3.16246925 65.25183315 -12.45214844 81.86425781 C-27.62824119 97.3485989 -48.24443416 103.82238087 -69.52148438 104.44262695 C-84.82062034 104.55219869 -99.33830425 102.2366115 -111.07421875 91.8046875 C-112.74547812 89.9771233 -113.71681516 88.28352438 -114.703125 86.0234375 C-115.363125 86.0234375 -116.023125 86.0234375 -116.703125 86.0234375 C-121.67759745 78.08204755 -122.22258078 70.56618355 -122.265625 61.3984375 C-122.27980469 60.33826416 -122.29398438 59.27809082 -122.30859375 58.18579102 C-122.21938672 51.01744841 -120.83624445 45.45516593 -117.703125 39.0234375 C-117.39737549 38.38245117 -117.09162598 37.74146484 -116.77661133 37.08105469 C-116.1089221 35.71677536 -115.41054875 34.36754263 -114.703125 33.0234375 C-114.043125 33.0234375 -113.383125 33.0234375 -112.703125 33.0234375 C-112.48269531 32.44851563 -112.26226563 31.87359375 -112.03515625 31.28125 C-110.28862926 28.32086114 -108.18370054 26.88647232 -105.390625 24.8984375 C-104.44574219 24.21523438 -103.50085937 23.53203125 -102.52734375 22.828125 C-95.11989364 18.09473364 -86.17814092 16.86753819 -77.703125 15.0234375 C-77.703125 14.3634375 -77.703125 13.7034375 -77.703125 13.0234375 C-75.49743335 12.53225407 -73.28834179 12.05634005 -71.078125 11.5859375 C-69.84835937 11.31910156 -68.61859375 11.05226563 -67.3515625 10.77734375 C-63.65125672 10.08728559 -60.00254414 9.82591224 -56.24609375 9.609375 C-48.64953291 9.11997922 -41.29276784 7.89605905 -33.82250977 6.49438477 C-31.61318371 6.08080051 -29.40162034 5.68128136 -27.18945312 5.28320312 C-18.77528122 3.77096993 -18.77528122 3.77096993 -10.703125 1.0234375 C-7.08786926 0.20178847 -3.68988625 -0.02012665 0 0 Z " fill="#FBFBFB" transform="translate(1387.703125,970.9765625)"/>
<path d="M0 0 C0.66 0.33 1.32 0.66 2 1 C0.89718873 2.27200971 -0.20730769 3.54255853 -1.3125 4.8125 C-1.92738281 5.52019531 -2.54226563 6.22789062 -3.17578125 6.95703125 C-4.73334335 8.70136739 -6.32658875 10.36778041 -8 12 C-8.66 11.67 -9.32 11.34 -10 11 C-8.89718873 9.72799029 -7.79269231 8.45744147 -6.6875 7.1875 C-6.07261719 6.47980469 -5.45773437 5.77210938 -4.82421875 5.04296875 C-3.26665665 3.29863261 -1.67341125 1.63221959 0 0 Z " fill="#B7B7B7" transform="translate(1023,875)"/>
<path d="M0 0 C0.33 0.99 0.66 1.98 1 3 C-0.45217676 4.50596108 -1.91192861 6.00462104 -3.375 7.5 C-4.18710937 8.3353125 -4.99921875 9.170625 -5.8359375 10.03125 C-8 12 -8 12 -10 12 C-8.52278578 8.54798361 -6.56205999 6.35038064 -3.875 3.75 C-3.15054688 3.04359375 -2.42609375 2.3371875 -1.6796875 1.609375 C-1.12539063 1.07828125 -0.57109375 0.5471875 0 0 Z " fill="#C0C0C0" transform="translate(536,871)"/>
<path d="M0 0 C0.66 0.33 1.32 0.66 2 1 C0.90344712 2.31886772 -0.20253423 3.62990057 -1.3125 4.9375 C-1.92738281 5.66839844 -2.54226563 6.39929688 -3.17578125 7.15234375 C-5 9 -5 9 -8 10 C-8 10.66 -8 11.32 -8 12 C-8.66 11.67 -9.32 11.34 -10 11 C-8.89718873 9.72799029 -7.79269231 8.45744147 -6.6875 7.1875 C-6.07261719 6.47980469 -5.45773437 5.77210938 -4.82421875 5.04296875 C-3.26665665 3.29863261 -1.67341125 1.63221959 0 0 Z " fill="#B2B2B2" transform="translate(836,875)"/>
<path d="M0 0 C0.66 0.33 1.32 0.66 2 1 C-5.11389522 9.6309795 -5.11389522 9.6309795 -10 12 C-10 11.34 -10 10.68 -10 10 C-9.34 10 -8.68 10 -8 10 C-7.79375 9.46375 -7.5875 8.9275 -7.375 8.375 C-5.42003056 4.9982346 -2.81776305 2.69525161 0 0 Z " fill="#BCBCBC" transform="translate(1290,866)"/>
</svg>
